<svg height="18" viewBox="0 0 20 18" width="20" xmlns="http://www.w3.org/2000/svg"><g fill="none" fill-rule="evenodd"><path d="m17.4361148 2.625c.7145205 0 .9824069.05230465 1.2459816.19326595.2153971.11519563.384442.28424053.4996376.49963763.1409613.26357472.193266.53146114.193266 1.24598162v8.8722296c0 .7145205-.0523047.9824069-.193266 1.2459816-.1151956.2153971-.2842405.384442-.4996376.4996376-.2635747.1409613-.5314611.193266-1.2459816.193266h-14.8722296c-.71452048 0-.9824069-.0523047-1.24598162-.193266-.2153971-.1151956-.384442-.2842405-.49963763-.4996376-.1409613-.2635747-.19326595-.5314611-.19326595-1.2459816v-8.8722296c0-.71452048.05230465-.9824069.19326595-1.24598162.11519563-.2153971.28424053-.384442.49963763-.49963763.26357472-.1409613.53146114-.19326595 1.24598162-.19326595z" stroke="#000" stroke-width="1.25"/><g fill="#000"><rect height="1.25" rx=".625" width="3.75" x="14" y="5"/><rect height="1.25" rx=".625" width="3.75" x="14" y="7"/><rect height="1.25" rx=".625" width="3.75" x="14" y="9"/><path d="m11.75 3h1.25v12h-1.25z"/></g></g></svg>