<svg height="19" viewBox="0 0 19 19" width="19" xmlns="http://www.w3.org/2000/svg"><g fill="none" fill-rule="evenodd"><circle cx="9.5" cy="9.5" fill="#EBEBEB" r="8.5"/><path d="m9.5.5c2.4852814 0 4.7352814 1.00735931 6.363961 2.63603897 1.6286797 1.62867966 2.636039 3.87867966 2.636039 6.36396103 0 2.4852814-1.0073593 4.7352814-2.636039 6.363961-1.6286796 1.6286797-3.8786796 2.636039-6.363961 2.636039-2.48528137 0-4.73528137-1.0073593-6.36396103-2.636039-1.62867966-1.6286796-2.63603897-3.8786796-2.63603897-6.363961 0-2.48528137 1.00735931-4.73528137 2.63603897-6.36396103s3.87867966-2.63603897 6.36396103-2.63603897zm0 6c-.82842712 0-1.57842712.33578644-2.12132034.87867966s-.87867966 1.29289322-.87867966 2.12132034c0 .8284271.33578644 1.5784271.87867966 2.1213203.54289322.5428933 1.29289322.8786797 2.12132034.8786797.8284271 0 1.5784271-.3357864 2.1213203-.8786797.5428933-.5428932.8786797-1.2928932.8786797-2.1213203 0-.82842712-.3357864-1.57842712-.8786797-2.12132034-.5428932-.54289322-1.2928932-.87867966-2.1213203-.87867966z" fill="#73d0ff" stroke="#005580" stroke-opacity=".249918"/></g></svg>