<svg width="60" height="60" viewBox="0 0 20 20" fill="none" xmlns="http://www.w3.org/2000/svg">
<path fill-rule="evenodd" clip-rule="evenodd" d="M13.75 18.0002H16C18.2091 18.0002 20 16.2094 20 14.0002V12.0002C20 6.4774 15.5228 2.00024 10 2.00024C4.47715 2.00024 0 6.4774 0 12.0002V14.0002C0 16.2094 1.79086 18.0002 4 18.0002H6.25C6.25 16.078 7.69632 14.4935 9.5601 14.2758L12.3569 9.61449C12.57 9.2593 13.0307 9.14413 13.3859 9.35724C13.741 9.57035 13.8562 10.031 13.6431 10.3862L11.2058 14.4483C12.6854 14.9505 13.75 16.351 13.75 18.0002ZM7.75 18.0002C7.75 16.7631 8.74842 15.7592 9.98345 15.7503C9.99413 15.7505 10.0048 15.7505 10.0155 15.7503C11.251 15.7586 12.25 16.7628 12.25 18.0002H7.75ZM5.1972 8.40771C6.14223 6.94733 7.55994 5.75024 10 5.75024C12.4401 5.75024 13.8578 6.94733 14.8028 8.40771C15.0278 8.75546 15.4922 8.85494 15.8399 8.62991C16.1877 8.40487 16.2872 7.94053 16.0621 7.59278C14.9152 5.82036 13.0723 4.25024 10 4.25024C6.92774 4.25024 5.08482 5.82036 3.93787 7.59278C3.71284 7.94053 3.81232 8.40487 4.16007 8.62991C4.50782 8.85494 4.97216 8.75546 5.1972 8.40771Z" fill="#0D0D0D"/>
</svg>
