<svg width="48" height="48" viewBox="0 0 16 16" fill="none" xmlns="http://www.w3.org/2000/svg">
<path d="M10.9921 7.07397C11.2172 7.42172 11.6815 7.5212 12.0293 7.29617C12.377 7.07113 12.4765 6.60679 12.2515 6.25904L11.6218 6.6665L10.9921 7.07397ZM3.74884 6.25904C3.5238 6.60679 3.62328 7.07113 3.97104 7.29617C4.31879 7.5212 4.78313 7.42172 5.00816 7.07397L4.3785 6.6665L3.74884 6.25904ZM10.6433 8.38571C10.8564 8.03052 10.7412 7.56983 10.386 7.35672C10.0308 7.14361 9.57015 7.25878 9.35704 7.61397L10.0002 7.99984L10.6433 8.38571ZM4.00016 13.3332V14.0832H12.0002V13.3332V12.5832H4.00016V13.3332ZM14.6668 10.6665H15.4168V9.33317H14.6668H13.9168V10.6665H14.6668ZM1.3335 9.33317H0.583496V10.6665H1.3335H2.0835V9.33317H1.3335ZM8.00016 2.6665V1.9165C3.90405 1.9165 0.583496 5.23706 0.583496 9.33317H1.3335H2.0835C2.0835 6.06549 4.73248 3.4165 8.00016 3.4165V2.6665ZM14.6668 9.33317H15.4168C15.4168 5.23706 12.0963 1.9165 8.00016 1.9165V2.6665V3.4165C11.2678 3.4165 13.9168 6.06549 13.9168 9.33317H14.6668ZM12.0002 13.3332V14.0832C13.8871 14.0832 15.4168 12.5535 15.4168 10.6665H14.6668H13.9168C13.9168 11.725 13.0587 12.5832 12.0002 12.5832V13.3332ZM4.00016 13.3332V12.5832C2.94162 12.5832 2.0835 11.725 2.0835 10.6665H1.3335H0.583496C0.583496 12.5535 2.11319 14.0832 4.00016 14.0832V13.3332ZM6.00016 13.3332H6.75016C6.75016 12.6428 7.30981 12.0832 8.00016 12.0832V11.3332V10.5832C6.48138 10.5832 5.25016 11.8144 5.25016 13.3332H6.00016ZM8.00016 11.3332V12.0832C8.69052 12.0832 9.25016 12.6428 9.25016 13.3332H10.0002H10.7502C10.7502 11.8144 9.51895 10.5832 8.00016 10.5832V11.3332ZM8.00014 4.6665V5.4165C9.52148 5.4165 10.3958 6.15239 10.9921 7.07397L11.6218 6.6665L12.2515 6.25904C11.4532 5.02542 10.1537 3.9165 8.00014 3.9165V4.6665ZM4.3785 6.6665L5.00816 7.07397C5.60453 6.15239 6.47881 5.4165 8.00014 5.4165V4.6665V3.9165C5.8466 3.9165 4.54713 5.02542 3.74884 6.25904L4.3785 6.6665ZM8.00016 11.3332L8.64328 11.719L10.6433 8.38571L10.0002 7.99984L9.35704 7.61397L7.35704 10.9473L8.00016 11.3332Z" fill="white"/>
</svg>
