<svg width="20" height="20" viewBox="0 0 20 20" fill="none" xmlns="http://www.w3.org/2000/svg">
<path d="M15.0001 16.6668H5.00008C3.15913 16.6668 1.66675 15.1744 1.66675 13.3335V11.6668C1.66675 7.06446 5.39771 3.3335 10.0001 3.3335C14.6025 3.3335 18.3334 7.06446 18.3334 11.6668V13.3335C18.3334 15.1744 16.841 16.6668 15.0001 16.6668Z" fill="#F8F8F8"/>
<path d="M13.8975 8.74096C14.1225 9.08871 14.5868 9.18819 14.9346 8.96316C15.2823 8.73812 15.3818 8.27379 15.1568 7.92603L14.5271 8.3335L13.8975 8.74096ZM4.84334 7.92603C4.6183 8.27379 4.71779 8.73812 5.06554 8.96316C5.41329 9.18819 5.87763 9.08871 6.10266 8.74096L5.473 8.3335L4.84334 7.92603ZM13.1432 10.386C13.3563 10.0308 13.2411 9.57015 12.886 9.35704C12.5308 9.14393 12.0701 9.25911 11.857 9.61429L12.5001 10.0002L13.1432 10.386ZM5.00008 16.6668V17.4168H15.0001V16.6668V15.9168H5.00008V16.6668ZM18.3334 13.3335H19.0834V11.6668H18.3334H17.5834V13.3335H18.3334ZM1.66675 11.6668H0.916748V13.3335H1.66675H2.41675V11.6668H1.66675ZM10.0001 3.3335V2.5835C4.98349 2.5835 0.916748 6.65024 0.916748 11.6668H1.66675H2.41675C2.41675 7.47867 5.81192 4.0835 10.0001 4.0835V3.3335ZM18.3334 11.6668H19.0834C19.0834 6.65024 15.0167 2.5835 10.0001 2.5835V3.3335V4.0835C14.1882 4.0835 17.5834 7.47867 17.5834 11.6668H18.3334ZM15.0001 16.6668V17.4168C17.2552 17.4168 19.0834 15.5887 19.0834 13.3335H18.3334H17.5834C17.5834 14.7602 16.4268 15.9168 15.0001 15.9168V16.6668ZM5.00008 16.6668V15.9168C3.57335 15.9168 2.41675 14.7602 2.41675 13.3335H1.66675H0.916748C0.916748 15.5887 2.74492 17.4168 5.00008 17.4168V16.6668ZM7.50008 16.6668H8.25008C8.25008 15.7003 9.03358 14.9168 10.0001 14.9168V14.1668V13.4168C8.20516 13.4168 6.75008 14.8719 6.75008 16.6668H7.50008ZM10.0001 14.1668V14.9168C10.9666 14.9168 11.7501 15.7003 11.7501 16.6668H12.5001H13.2501C13.2501 14.8719 11.795 13.4168 10.0001 13.4168V14.1668ZM10.0001 5.8335V6.5835C11.9808 6.5835 13.1268 7.54998 13.8975 8.74096L14.5271 8.3335L15.1568 7.92603C14.1842 6.42302 12.613 5.0835 10.0001 5.0835V5.8335ZM5.473 8.3335L6.10266 8.74096C6.87336 7.54998 8.01936 6.5835 10.0001 6.5835V5.8335V5.0835C7.38715 5.0835 5.81596 6.42302 4.84334 7.92603L5.473 8.3335ZM10.0001 14.1668L10.6432 14.5527L13.1432 10.386L12.5001 10.0002L11.857 9.61429L9.35696 13.781L10.0001 14.1668Z" fill="#0D0D0D"/>
</svg>
