<svg width="40" height="40" viewBox="0 0 40 40" fill="none" xmlns="http://www.w3.org/2000/svg">
<path d="M35 29.9998L21.3538 36.0648C20.4919 36.4478 19.5081 36.4478 18.6462 36.0648L5 29.9998M35 21.6665L21.3538 27.7314C20.4919 28.1145 19.5081 28.1145 18.6462 27.7314L5 21.6665M6.31476 13.1572L18.5093 19.2544C19.4477 19.7236 20.5523 19.7236 21.4907 19.2544L33.6852 13.1572C34.9137 12.543 34.9137 10.7899 33.6852 10.1757L21.4907 4.07847C20.5523 3.60926 19.4477 3.60926 18.5093 4.07847L6.31476 10.1757C5.08635 10.7899 5.08634 12.543 6.31476 13.1572Z" stroke="#0D0D0D" stroke-width="2" stroke-linecap="round" stroke-linejoin="round"/>
</svg>
