<svg width="16" height="16" viewBox="0 0 16 16" fill="none" xmlns="http://www.w3.org/2000/svg">
<path d="M11.3335 8.93317V10.9332C11.3335 13.5998 10.2668 14.6665 7.60016 14.6665H5.06683C2.40016 14.6665 1.3335 13.5998 1.3335 10.9332V8.39984C1.3335 5.73317 2.40016 4.6665 5.06683 4.6665H7.06683" stroke="white" stroke-width="1.5" stroke-linecap="round" stroke-linejoin="round"/>
<path d="M11.3336 8.93317H9.20023C7.60023 8.93317 7.06689 8.39984 7.06689 6.79984V4.6665L11.3336 8.93317Z" stroke="white" stroke-width="1.5" stroke-linecap="round" stroke-linejoin="round"/>
<path d="M7.7334 1.3335H10.4001" stroke="white" stroke-width="1.5" stroke-linecap="round" stroke-linejoin="round"/>
<path d="M4.6665 3.3335C4.6665 2.22683 5.55984 1.3335 6.6665 1.3335H8.41317" stroke="white" stroke-width="1.5" stroke-linecap="round" stroke-linejoin="round"/>
<path d="M14.6668 5.3335V9.46016C14.6668 10.4935 13.8268 11.3335 12.7935 11.3335" stroke="white" stroke-width="1.5" stroke-linecap="round" stroke-linejoin="round"/>
<path d="M14.6665 5.3335H12.6665C11.1665 5.3335 10.6665 4.8335 10.6665 3.3335V1.3335L14.6665 5.3335Z" stroke="white" stroke-width="1.5" stroke-linecap="round" stroke-linejoin="round"/>
</svg>
