<svg width="40" height="40" viewBox="0 0 40 40" fill="none" xmlns="http://www.w3.org/2000/svg">
<path d="M28.3335 22.3332V27.3332C28.3335 33.9998 25.6668 36.6665 19.0002 36.6665H12.6668C6.00016 36.6665 3.3335 33.9998 3.3335 27.3332V20.9998C3.3335 14.3332 6.00016 11.6665 12.6668 11.6665H17.6668" stroke="#0D0D0D" stroke-width="2" stroke-linecap="round" stroke-linejoin="round"/>
<path d="M28.3332 22.3332H22.9998C18.9998 22.3332 17.6665 20.9998 17.6665 16.9998V11.6665L28.3332 22.3332Z" stroke="#0D0D0D" stroke-width="2" stroke-linecap="round" stroke-linejoin="round"/>
<path d="M19.3335 3.3335H26.0002" stroke="#0D0D0D" stroke-width="2" stroke-linecap="round" stroke-linejoin="round"/>
<path d="M11.6665 8.3335C11.6665 5.56683 13.8998 3.3335 16.6665 3.3335H21.0332" stroke="#0D0D0D" stroke-width="2" stroke-linecap="round" stroke-linejoin="round"/>
<path d="M36.6667 13.3335V23.6502C36.6667 26.2335 34.5667 28.3335 31.9834 28.3335" stroke="#0D0D0D" stroke-width="2" stroke-linecap="round" stroke-linejoin="round"/>
<path d="M36.6665 13.3335H31.6665C27.9165 13.3335 26.6665 12.0835 26.6665 8.3335V3.3335L36.6665 13.3335Z" stroke="#0D0D0D" stroke-width="2" stroke-linecap="round" stroke-linejoin="round"/>
</svg>
