<svg width="16" height="16" viewBox="0 0 16 16" fill="none" xmlns="http://www.w3.org/2000/svg">
<path d="M5.99967 14.6663H9.99967C13.333 14.6663 14.6663 13.333 14.6663 9.99967V5.99967C14.6663 2.66634 13.333 1.33301 9.99967 1.33301H5.99967C2.66634 1.33301 1.33301 2.66634 1.33301 5.99967V9.99967C1.33301 13.333 2.66634 14.6663 5.99967 14.6663Z" stroke="white" stroke-width="1.5" stroke-linecap="round" stroke-linejoin="round"/>
<path d="M10.333 4.41699C10.652 4.41699 10.9168 4.68103 10.917 5V11C10.917 11.3191 10.6521 11.584 10.333 11.584C10.0098 11.5838 9.75 11.3215 9.75 11V5C9.75018 4.68113 10.0141 4.41717 10.333 4.41699Z" stroke="white" stroke-width="1.5" stroke-linecap="round" stroke-linejoin="round"/>
<path d="M5.66602 8.08301C5.98503 8.08301 6.24982 8.34704 6.25 8.66602V11C6.24982 11.319 5.98503 11.583 5.66602 11.583C5.34293 11.5828 5.08318 11.3213 5.08301 11V8.66602C5.08319 8.34715 5.34715 8.08319 5.66602 8.08301Z" stroke="white" stroke-width="1.5" stroke-linecap="round" stroke-linejoin="round"/>
</svg>
