<svg width="16" height="16" viewBox="0 0 16 16" fill="none" xmlns="http://www.w3.org/2000/svg">
<path d="M13.6668 7.53349V4.6935C13.6668 2.00684 13.0402 1.3335 10.5202 1.3335H5.48016C2.96016 1.3335 2.3335 2.00684 2.3335 4.6935V12.2002C2.3335 13.9735 3.30684 14.3935 4.48684 13.1268L4.49349 13.1202C5.04016 12.5402 5.87349 12.5868 6.34682 13.2202L7.02016 14.1202" stroke="white" stroke-width="1.5" stroke-linecap="round" stroke-linejoin="round"/>
<path d="M12.1333 14.2667C13.3115 14.2667 14.2667 13.3115 14.2667 12.1333C14.2667 10.9551 13.3115 10 12.1333 10C10.9551 10 10 10.9551 10 12.1333C10 13.3115 10.9551 14.2667 12.1333 14.2667Z" stroke="white" stroke-width="1.5" stroke-linecap="round" stroke-linejoin="round"/>
<path d="M14.6667 14.6667L14 14" stroke="white" stroke-width="1.5" stroke-linecap="round" stroke-linejoin="round"/>
<path d="M5.3335 4.6665H10.6668" stroke="white" stroke-width="1.5" stroke-linecap="round" stroke-linejoin="round"/>
<path d="M6 7.3335H10" stroke="white" stroke-width="1.5" stroke-linecap="round" stroke-linejoin="round"/>
</svg>
