<svg width="20" height="20" viewBox="0 0 20 20" fill="none" xmlns="http://www.w3.org/2000/svg">
<rect width="20" height="20" rx="10" fill="#00cec8"/>
<path d="M12.0883 9.99995C12.0883 11.155 11.155 12.0883 9.99995 12.0883C8.84495 12.0883 7.91162 11.155 7.91162 9.99995C7.91162 8.84495 8.84495 7.91162 9.99995 7.91162C11.155 7.91162 12.0883 8.84495 12.0883 9.99995Z" stroke="white" stroke-width="1.5" stroke-linecap="round" stroke-linejoin="round"/>
<path d="M9.99991 14.8241C12.0591 14.8241 13.9782 13.6108 15.3141 11.5108C15.8391 10.6883 15.8391 9.30579 15.3141 8.48329C13.9782 6.38329 12.0591 5.16995 9.99991 5.16995C7.94074 5.16995 6.02158 6.38329 4.68574 8.48329C4.16074 9.30579 4.16074 10.6883 4.68574 11.5108C6.02158 13.6108 7.94074 14.8241 9.99991 14.8241Z" stroke="white" stroke-width="2" stroke-linecap="round" stroke-linejoin="round"/>
</svg>
