<svg width="40" height="40" viewBox="0 0 40 40" fill="none" xmlns="http://www.w3.org/2000/svg">
<path d="M28.2147 17.2103C28.5147 17.6739 29.1338 17.8066 29.5975 17.5065C30.0612 17.2065 30.1938 16.5874 29.8938 16.1237L29.0542 16.667L28.2147 17.2103ZM10.1065 16.1237C9.80641 16.5874 9.93905 17.2065 10.4027 17.5065C10.8664 17.8066 11.4855 17.6739 11.7856 17.2103L10.946 16.667L10.1065 16.1237ZM25.8577 20.5148C26.1418 20.0412 25.9882 19.427 25.5147 19.1428C25.0411 18.8587 24.4268 19.0123 24.1427 19.4858L25.0002 20.0003L25.8577 20.5148ZM10.0002 33.3337V34.3337H30.0002V33.3337V32.3337H10.0002V33.3337ZM36.6668 26.667H37.6668V23.3337H36.6668H35.6668V26.667H36.6668ZM3.3335 23.3337H2.3335V26.667H3.3335H4.3335V23.3337H3.3335ZM20.0002 6.66699V5.66699C10.2431 5.66699 2.3335 13.5766 2.3335 23.3337H3.3335H4.3335C4.3335 14.6812 11.3477 7.66699 20.0002 7.66699V6.66699ZM36.6668 23.3337H37.6668C37.6668 13.5766 29.7572 5.66699 20.0002 5.66699V6.66699V7.66699C28.6526 7.66699 35.6668 14.6812 35.6668 23.3337H36.6668ZM30.0002 33.3337V34.3337C34.2343 34.3337 37.6668 30.9012 37.6668 26.667H36.6668H35.6668C35.6668 29.7966 33.1298 32.3337 30.0002 32.3337V33.3337ZM10.0002 33.3337V32.3337C6.87055 32.3337 4.3335 29.7966 4.3335 26.667H3.3335H2.3335C2.3335 30.9012 5.76598 34.3337 10.0002 34.3337V33.3337ZM15.0002 33.3337H16.0002C16.0002 31.1245 17.791 29.3337 20.0002 29.3337V28.3337V27.3337C16.6865 27.3337 14.0002 30.02 14.0002 33.3337H15.0002ZM20.0002 28.3337V29.3337C22.2093 29.3337 24.0002 31.1245 24.0002 33.3337H25.0002H26.0002C26.0002 30.02 23.3139 27.3337 20.0002 27.3337V28.3337ZM20.0001 11.667V12.667C24.1723 12.667 26.606 14.7243 28.2147 17.2103L29.0542 16.667L29.8938 16.1237C28.0158 13.2217 25.0152 10.667 20.0001 10.667V11.667ZM10.946 16.667L11.7856 17.2103C13.3943 14.7243 15.828 12.667 20.0001 12.667V11.667V10.667C14.985 10.667 11.9844 13.2217 10.1065 16.1237L10.946 16.667ZM20.0002 28.3337L20.8577 28.8482L25.8577 20.5148L25.0002 20.0003L24.1427 19.4858L19.1427 27.8192L20.0002 28.3337Z" fill="#0D0D0D"/>
</svg>
