<svg width="249" height="48" viewBox="0 0 249 48" fill="none" xmlns="http://www.w3.org/2000/svg">
<path d="M46.73 9.02147C47.9533 9.91696 48.534 11.0728 48.7624 12.5383C48.8019 12.8754 48.8128 13.211 48.8215 13.55C48.8899 15.9515 49.6884 18.0571 51.41 19.8003C55.13 23.221 60.6927 23.1558 65.4395 23.1856C65.6883 23.1874 65.9372 23.1893 66.1861 23.1912C66.7671 23.1955 67.3481 23.1995 67.9291 23.2033C68.5923 23.2078 69.2555 23.2126 69.9188 23.2175C71.2792 23.2274 72.6396 23.2369 74 23.246C74 23.7708 74 24.2956 74 24.8363C73.7425 24.8372 73.485 24.8381 73.2196 24.8391C70.8481 24.8475 68.4766 24.8563 66.1051 24.8656C65.7932 24.8668 65.4812 24.868 65.1692 24.8692C65.1071 24.8694 65.045 24.8697 64.981 24.8699C63.9807 24.8738 62.9804 24.8774 61.9801 24.8809C60.9506 24.8845 59.9212 24.8884 58.8918 24.8926C58.3148 24.8949 57.7379 24.8971 57.161 24.899C56.616 24.9007 56.0709 24.9028 55.5259 24.9053C55.3278 24.9061 55.1296 24.9068 54.9315 24.9073C53.8837 24.9102 52.8374 24.9256 51.7902 24.9627C51.6961 24.9659 51.6019 24.969 51.5049 24.9723C48.766 25.0787 45.9851 25.629 43.58 26.9567C43.4491 27.0285 43.4491 27.0285 43.3156 27.1017C41.3765 28.2417 40.02 29.94 39.4164 32.0828C39.3945 32.1697 39.3726 32.2566 39.35 32.3461C39.3309 32.4194 39.3117 32.4926 39.292 32.5681C39.1703 33.1156 39.1516 33.6602 39.1306 34.2181C39.0616 35.963 38.7341 37.522 37.3981 38.7682C35.7654 40.0895 33.6127 40.0714 31.61 39.9443C30.1976 39.7928 28.9658 39.2221 28.01 38.1773C27.1953 37.104 26.9422 35.8439 26.9085 34.5323C26.8401 32.1308 26.0416 30.0252 24.32 28.282C21.6603 25.8363 17.7364 25.092 14.2202 24.9664C14.0611 24.9607 14.0611 24.9607 13.8989 24.9549C12.6896 24.9144 11.4804 24.9046 10.2705 24.8967C10.0298 24.8949 9.78914 24.893 9.54846 24.8911C8.98723 24.8868 8.42601 24.8828 7.86478 24.8789C7.22396 24.8745 6.58314 24.8697 5.94232 24.8648C4.62822 24.8549 3.31411 24.8454 2 24.8363C2 24.3115 2 23.7867 2 23.246C2.3812 23.2446 2.3812 23.2446 2.77011 23.2432C5.11063 23.2348 7.45116 23.226 9.79168 23.2167C10.0996 23.2155 10.4075 23.2143 10.7155 23.2131C10.7767 23.2129 10.838 23.2126 10.9012 23.2124C11.8884 23.2085 12.8756 23.2049 13.8628 23.2014C14.8788 23.1978 15.8948 23.1939 16.9109 23.1897C17.4802 23.1874 18.0496 23.1852 18.619 23.1833C19.157 23.1816 19.6949 23.1794 20.2328 23.177C20.4283 23.1762 20.6239 23.1755 20.8194 23.175C21.8597 23.1721 22.8986 23.1564 23.9382 23.1196C24.0325 23.1164 24.1267 23.1132 24.2238 23.11C26.9632 23.0038 29.7445 22.4535 32.15 21.1256C32.2809 21.0538 32.2809 21.0538 32.4144 20.9806C34.3535 19.8406 35.71 18.1423 36.3136 15.9995C36.3355 15.9126 36.3574 15.8257 36.38 15.7362C36.4087 15.6263 36.4087 15.6263 36.438 15.5142C36.5597 14.9667 36.5784 14.4221 36.5994 13.8642C36.6684 12.1193 36.9959 10.5603 38.3319 9.31414C40.392 7.63145 44.5089 7.59855 46.73 9.02147Z" fill="#F8F8F8"/>
<path d="M100.609 11.5V35.5H97.7031V11.5H100.609ZM115.594 31.5938V18.5938H118.5V35.5H115.734L115.594 31.5938ZM116.141 28.0312L117.344 28C117.344 29.125 117.224 30.1667 116.984 31.125C116.755 32.0729 116.38 32.8958 115.859 33.5938C115.339 34.2917 114.656 34.8385 113.812 35.2344C112.969 35.6198 111.943 35.8125 110.734 35.8125C109.911 35.8125 109.156 35.6927 108.469 35.4531C107.792 35.2135 107.208 34.8438 106.719 34.3438C106.229 33.8438 105.849 33.1927 105.578 32.3906C105.318 31.5885 105.188 30.625 105.188 29.5V18.5938H108.078V29.5312C108.078 30.2917 108.161 30.9219 108.328 31.4219C108.505 31.9115 108.74 32.3021 109.031 32.5938C109.333 32.875 109.667 33.0729 110.031 33.1875C110.406 33.3021 110.792 33.3594 111.188 33.3594C112.417 33.3594 113.391 33.125 114.109 32.6562C114.828 32.1771 115.344 31.5365 115.656 30.7344C115.979 29.9219 116.141 29.0208 116.141 28.0312ZM125.781 21.9531V35.5H122.875V18.5938H125.625L125.781 21.9531ZM125.188 26.4062L123.844 26.3594C123.854 25.2031 124.005 24.1354 124.297 23.1562C124.589 22.1667 125.021 21.3073 125.594 20.5781C126.167 19.849 126.88 19.2865 127.734 18.8906C128.589 18.4844 129.578 18.2812 130.703 18.2812C131.495 18.2812 132.224 18.3958 132.891 18.625C133.557 18.8438 134.135 19.1927 134.625 19.6719C135.115 20.151 135.495 20.7656 135.766 21.5156C136.036 22.2656 136.172 23.1719 136.172 24.2344V35.5H133.281V24.375C133.281 23.4896 133.13 22.7812 132.828 22.25C132.536 21.7188 132.12 21.3333 131.578 21.0938C131.036 20.8438 130.401 20.7188 129.672 20.7188C128.818 20.7188 128.104 20.8698 127.531 21.1719C126.958 21.474 126.5 21.8906 126.156 22.4219C125.812 22.9531 125.562 23.5625 125.406 24.25C125.26 24.9271 125.188 25.6458 125.188 26.4062ZM136.141 24.8125L134.203 25.4062C134.214 24.4792 134.365 23.5885 134.656 22.7344C134.958 21.8802 135.391 21.1198 135.953 20.4531C136.526 19.7865 137.229 19.2604 138.062 18.875C138.896 18.4792 139.849 18.2812 140.922 18.2812C141.828 18.2812 142.63 18.401 143.328 18.6406C144.036 18.8802 144.63 19.25 145.109 19.75C145.599 20.2396 145.969 20.8698 146.219 21.6406C146.469 22.4115 146.594 23.3281 146.594 24.3906V35.5H143.688V24.3594C143.688 23.4115 143.536 22.6771 143.234 22.1562C142.943 21.625 142.526 21.2552 141.984 21.0469C141.453 20.8281 140.818 20.7188 140.078 20.7188C139.443 20.7188 138.88 20.8281 138.391 21.0469C137.901 21.2656 137.49 21.5677 137.156 21.9531C136.823 22.3281 136.568 22.7604 136.391 23.25C136.224 23.7396 136.141 24.2604 136.141 24.8125ZM154.109 18.5938V35.5H151.203V18.5938H154.109ZM150.984 14.1094C150.984 13.6406 151.125 13.2448 151.406 12.9219C151.698 12.599 152.125 12.4375 152.688 12.4375C153.24 12.4375 153.661 12.599 153.953 12.9219C154.255 13.2448 154.406 13.6406 154.406 14.1094C154.406 14.5573 154.255 14.9427 153.953 15.2656C153.661 15.5781 153.24 15.7344 152.688 15.7344C152.125 15.7344 151.698 15.5781 151.406 15.2656C151.125 14.9427 150.984 14.5573 150.984 14.1094ZM163.062 35.5H160.172V16.8125C160.172 15.5938 160.396 14.5677 160.844 13.7344C161.302 12.8906 161.958 12.2552 162.812 11.8281C163.677 11.3906 164.724 11.1719 165.953 11.1719C166.411 11.1719 166.984 11.2188 167.672 11.3125C168.37 11.4062 169.109 11.526 169.891 11.6719C170.682 11.8177 171.453 11.9688 172.203 12.125L170.859 14.2188C169.87 14.0312 168.979 13.8906 168.188 13.7969C167.396 13.6927 166.724 13.6406 166.172 13.6406C165.495 13.6406 164.922 13.7656 164.453 14.0156C163.995 14.2552 163.646 14.6094 163.406 15.0781C163.177 15.5469 163.062 16.125 163.062 16.8125V35.5ZM169.312 35.5V12.125H172.203V35.5H169.312ZM166.656 18.5938V20.8125H157.5V18.5938H166.656ZM176.172 27.2344V26.875C176.172 25.6562 176.349 24.526 176.703 23.4844C177.057 22.4323 177.568 21.5208 178.234 20.75C178.901 19.9688 179.708 19.3646 180.656 18.9375C181.604 18.5 182.667 18.2812 183.844 18.2812C185.031 18.2812 186.099 18.5 187.047 18.9375C188.005 19.3646 188.818 19.9688 189.484 20.75C190.161 21.5208 190.677 22.4323 191.031 23.4844C191.385 24.526 191.562 25.6562 191.562 26.875V27.2344C191.562 28.4531 191.385 29.5833 191.031 30.625C190.677 31.6667 190.161 32.5781 189.484 33.3594C188.818 34.1302 188.01 34.7344 187.062 35.1719C186.125 35.599 185.062 35.8125 183.875 35.8125C182.688 35.8125 181.62 35.599 180.672 35.1719C179.724 34.7344 178.911 34.1302 178.234 33.3594C177.568 32.5781 177.057 31.6667 176.703 30.625C176.349 29.5833 176.172 28.4531 176.172 27.2344ZM179.062 26.875V27.2344C179.062 28.0781 179.161 28.875 179.359 29.625C179.557 30.3646 179.854 31.0208 180.25 31.5938C180.656 32.1667 181.161 32.6198 181.766 32.9531C182.37 33.276 183.073 33.4375 183.875 33.4375C184.667 33.4375 185.359 33.276 185.953 32.9531C186.557 32.6198 187.057 32.1667 187.453 31.5938C187.849 31.0208 188.146 30.3646 188.344 29.625C188.552 28.875 188.656 28.0781 188.656 27.2344V26.875C188.656 26.0417 188.552 25.2552 188.344 24.5156C188.146 23.7656 187.844 23.1042 187.438 22.5312C187.042 21.9479 186.542 21.4896 185.938 21.1562C185.344 20.8229 184.646 20.6562 183.844 20.6562C183.052 20.6562 182.354 20.8229 181.75 21.1562C181.156 21.4896 180.656 21.9479 180.25 22.5312C179.854 23.1042 179.557 23.7656 179.359 24.5156C179.161 25.2552 179.062 26.0417 179.062 26.875ZM199.469 32.5L203.812 18.5938H205.719L205.344 21.3594L200.922 35.5H199.062L199.469 32.5ZM196.547 18.5938L200.25 32.6562L200.516 35.5H198.562L193.656 18.5938H196.547ZM209.875 32.5469L213.406 18.5938H216.281L211.375 35.5H209.438L209.875 32.5469ZM206.141 18.5938L210.391 32.2656L210.875 35.5H209.031L204.484 21.3281L204.109 18.5938H206.141ZM217.359 33.9688C217.359 33.4792 217.51 33.0677 217.812 32.7344C218.125 32.3906 218.573 32.2188 219.156 32.2188C219.74 32.2188 220.182 32.3906 220.484 32.7344C220.797 33.0677 220.953 33.4792 220.953 33.9688C220.953 34.4479 220.797 34.8542 220.484 35.1875C220.182 35.5208 219.74 35.6875 219.156 35.6875C218.573 35.6875 218.125 35.5208 217.812 35.1875C217.51 34.8542 217.359 34.4479 217.359 33.9688ZM235.719 32.6094V23.9062C235.719 23.2396 235.583 22.6615 235.312 22.1719C235.052 21.6719 234.656 21.2865 234.125 21.0156C233.594 20.7448 232.938 20.6094 232.156 20.6094C231.427 20.6094 230.786 20.7344 230.234 20.9844C229.693 21.2344 229.266 21.5625 228.953 21.9688C228.651 22.375 228.5 22.8125 228.5 23.2812H225.609C225.609 22.6771 225.766 22.0781 226.078 21.4844C226.391 20.8906 226.839 20.3542 227.422 19.875C228.016 19.3854 228.724 19 229.547 18.7188C230.38 18.4271 231.307 18.2812 232.328 18.2812C233.557 18.2812 234.641 18.4896 235.578 18.9062C236.526 19.3229 237.266 19.9531 237.797 20.7969C238.339 21.6302 238.609 22.6771 238.609 23.9375V31.8125C238.609 32.375 238.656 32.974 238.75 33.6094C238.854 34.2448 239.005 34.7917 239.203 35.25V35.5H236.188C236.042 35.1667 235.927 34.724 235.844 34.1719C235.76 33.6094 235.719 33.0885 235.719 32.6094ZM236.219 25.25L236.25 27.2812H233.328C232.505 27.2812 231.771 27.349 231.125 27.4844C230.479 27.6094 229.938 27.8021 229.5 28.0625C229.062 28.3229 228.729 28.651 228.5 29.0469C228.271 29.4323 228.156 29.8854 228.156 30.4062C228.156 30.9375 228.276 31.4219 228.516 31.8594C228.755 32.2969 229.115 32.6458 229.594 32.9062C230.083 33.1562 230.682 33.2812 231.391 33.2812C232.276 33.2812 233.057 33.0938 233.734 32.7188C234.411 32.3438 234.948 31.8854 235.344 31.3438C235.75 30.8021 235.969 30.276 236 29.7656L237.234 31.1562C237.161 31.5938 236.964 32.0781 236.641 32.6094C236.318 33.1406 235.885 33.651 235.344 34.1406C234.812 34.6198 234.177 35.0208 233.438 35.3438C232.708 35.6562 231.885 35.8125 230.969 35.8125C229.823 35.8125 228.818 35.5885 227.953 35.1406C227.099 34.6927 226.432 34.0938 225.953 33.3438C225.484 32.5833 225.25 31.7344 225.25 30.7969C225.25 29.8906 225.427 29.0938 225.781 28.4062C226.135 27.7083 226.646 27.1302 227.312 26.6719C227.979 26.2031 228.781 25.849 229.719 25.6094C230.656 25.3698 231.703 25.25 232.859 25.25H236.219ZM246.297 18.5938V35.5H243.391V18.5938H246.297ZM243.172 14.1094C243.172 13.6406 243.312 13.2448 243.594 12.9219C243.885 12.599 244.312 12.4375 244.875 12.4375C245.427 12.4375 245.849 12.599 246.141 12.9219C246.443 13.2448 246.594 13.6406 246.594 14.1094C246.594 14.5573 246.443 14.9427 246.141 15.2656C245.849 15.5781 245.427 15.7344 244.875 15.7344C244.312 15.7344 243.885 15.5781 243.594 15.2656C243.312 14.9427 243.172 14.5573 243.172 14.1094Z" fill="#F8F8F8"/>
</svg>
