<svg width="108" height="48" viewBox="0 0 108 48" fill="none" xmlns="http://www.w3.org/2000/svg">
<path d="M62.73 9.02147C63.9533 9.91696 64.534 11.0728 64.7624 12.5383C64.8019 12.8754 64.8128 13.211 64.8215 13.55C64.8899 15.9515 65.6884 18.0571 67.41 19.8003C71.13 23.221 76.6927 23.1558 81.4395 23.1856C81.6883 23.1874 81.9372 23.1893 82.1861 23.1912C82.7671 23.1955 83.3481 23.1995 83.9291 23.2033C84.5923 23.2078 85.2555 23.2126 85.9188 23.2175C87.2792 23.2274 88.6396 23.2369 90 23.246C90 23.7708 90 24.2956 90 24.8363C89.7425 24.8372 89.485 24.8381 89.2196 24.8391C86.8481 24.8475 84.4766 24.8563 82.1051 24.8656C81.7932 24.8668 81.4812 24.868 81.1692 24.8692C81.1071 24.8694 81.045 24.8697 80.981 24.8699C79.9807 24.8738 78.9804 24.8774 77.9801 24.8809C76.9506 24.8845 75.9212 24.8884 74.8918 24.8926C74.3148 24.8949 73.7379 24.8971 73.161 24.899C72.616 24.9007 72.0709 24.9028 71.5259 24.9053C71.3278 24.9061 71.1296 24.9068 70.9315 24.9073C69.8837 24.9102 68.8374 24.9256 67.7902 24.9627C67.6961 24.9659 67.6019 24.969 67.5049 24.9723C64.766 25.0787 61.9851 25.629 59.58 26.9567C59.4491 27.0285 59.4491 27.0285 59.3156 27.1017C57.3765 28.2417 56.02 29.94 55.4164 32.0828C55.3945 32.1697 55.3726 32.2566 55.35 32.3461C55.3309 32.4194 55.3117 32.4926 55.292 32.5681C55.1703 33.1156 55.1516 33.6602 55.1306 34.2181C55.0616 35.963 54.7341 37.522 53.3981 38.7682C51.7654 40.0895 49.6127 40.0714 47.61 39.9443C46.1976 39.7928 44.9658 39.2221 44.01 38.1773C43.1953 37.104 42.9422 35.8439 42.9085 34.5323C42.8401 32.1308 42.0416 30.0252 40.32 28.282C37.6603 25.8363 33.7364 25.092 30.2202 24.9664C30.0611 24.9607 30.0611 24.9607 29.8989 24.9549C28.6896 24.9144 27.4804 24.9046 26.2705 24.8967C26.0298 24.8949 25.7891 24.893 25.5485 24.8911C24.9872 24.8868 24.426 24.8828 23.8648 24.8789C23.224 24.8745 22.5831 24.8697 21.9423 24.8648C20.6282 24.8549 19.3141 24.8454 18 24.8363C18 24.3115 18 23.7867 18 23.246C18.3812 23.2446 18.3812 23.2446 18.7701 23.2432C21.1106 23.2348 23.4512 23.226 25.7917 23.2167C26.0996 23.2155 26.4075 23.2143 26.7155 23.2131C26.7767 23.2129 26.838 23.2126 26.9012 23.2124C27.8884 23.2085 28.8756 23.2049 29.8628 23.2014C30.8788 23.1978 31.8948 23.1939 32.9109 23.1897C33.4802 23.1874 34.0496 23.1852 34.619 23.1833C35.157 23.1816 35.6949 23.1794 36.2328 23.177C36.4283 23.1762 36.6239 23.1755 36.8194 23.175C37.8597 23.1721 38.8986 23.1564 39.9382 23.1196C40.0325 23.1164 40.1267 23.1132 40.2238 23.11C42.9632 23.0038 45.7445 22.4535 48.15 21.1256C48.2809 21.0538 48.2809 21.0538 48.4144 20.9806C50.3535 19.8406 51.71 18.1423 52.3136 15.9995C52.3355 15.9126 52.3574 15.8257 52.38 15.7362C52.4087 15.6263 52.4087 15.6263 52.438 15.5142C52.5597 14.9667 52.5784 14.4221 52.5994 13.8642C52.6684 12.1193 52.9959 10.5603 54.3319 9.31414C56.392 7.63145 60.5089 7.59855 62.73 9.02147Z" fill="#0011EB"/>
</svg>
